<svg class="u-svg-content" viewBox="0 0 128 128" xmlns="http://www.w3.org/2000/svg" id="svg-5e7a">
    <polygon points="104 40 104 48 120 48 120 120 48 120 48 104 40 104 40 128 128 128 128 40"></polygon>
    <rect x="80" width="8" height="8"></rect>
    <rect x="16" width="8" height="8"></rect>
    <rect x="32" width="8" height="8"></rect>
    <rect x="16" y="80" width="8" height="8"></rect>
    <rect x="48" width="8" height="8"></rect>
    <rect x="64" width="8" height="8"></rect>
    <rect width="8" height="8"></rect>
    <rect y="48" width="8" height="8"></rect>
    <rect y="64" width="8" height="8"></rect>
    <rect y="32" width="8" height="8"></rect>
    <rect y="16" width="8" height="8"></rect>
    <rect x="80" y="16" width="8" height="8"></rect>
    <rect y="80" width="8" height="8"></rect>
    <path d="m63.6 96.8 10.4 10.4 36.8-36.8-10.6-10.6-5.7-17-19.6-19.5-39.5 16.2c-6.1 2.5-9.1 9.5-6.5 15.7l0.3 0.6-0.5 0.5c-6.2 6.2-6.2 16.4 0 22.6l15.1 15.1 19.8 2.8zm-31.6-29.2c0-2.1 0.8-4.2 2.3-5.7l14.1 14.1 5.7-5.7-17-17c-1.6-1.6-1.6-4.1 0-5.7 0.4-0.4 0.8-0.7 1.3-0.9l34.6-14 14.4 14.4 5.7 17 6.3 6.3-25.5 25.5-6.6-6.6-19.8-2.8-13.2-13.3c-1.5-1.5-2.3-3.5-2.3-5.6z"></path>
</svg>
